<?xml version="1.0" encoding="utf-8"?>
<svg id="master-artboard" viewBox="0 0 380.5041809082031 383.2511291503906" version="1.1" xmlns="http://www.w3.org/2000/svg" x="0px" y="0px" style="enable-background:new 0 0 336 235.2;" width="380.5041809082031px" height="383.2511291503906px"><rect id="ee-background" x="0" y="0" width="380.5041809082031" height="383.2511291503906" style="fill: white; fill-opacity: 0; pointer-events: none;"/><defs><style id="ee-google-fonts">@import url(https://fonts.googleapis.com/css?family=Audiowide:400);</style><clipPath id="clipPath18" clipPathUnits="userSpaceOnUse"><path id="path16" d="M 0,800 H 800 V 0 H 0 Z"/></clipPath></defs>





















































































































































<g transform="matrix(0.918749988079071, 0, 0, 0.918749988079071, -290.23272705078125, -209.33788299560547)"><metadata id="metadata8"/><g transform="matrix(1.3333333,0,0,-1.3333333,0,1066.6667)" id="g10"><g id="g12"><g clip-path="url(#clipPath18)" id="g14"><g transform="matrix(0.9999999999999999, 0, 0, 0.9999999999999999, 545.219825378697, 473.6419895828915)" id="g20"><path id="path22" style="fill:#437582;fill-opacity:1;fill-rule:nonzero;stroke:none" d="m 0,0 c 0,-84.563 -68.551,-153.114 -153.114,-153.114 -84.562,0 -153.113,68.551 -153.113,153.114 0,84.562 68.551,153.113 153.113,153.113 C -68.551,153.113 0,84.562 0,0"/></g><g transform="matrix(0.9999999999999999, 0, 0, 0.9999999999999999, 392.10613214139244, 626.7562779129697)" id="g24"><path id="path26" style="fill:#3a646d;fill-opacity:1;fill-rule:nonzero;stroke:none" d="m 0,0 v -306.228 c 84.563,0 153.114,68.551 153.114,153.115 C 153.114,-68.553 84.563,0 0,0"/></g><path id="path28" style="fill:#ffffff;fill-opacity:1;fill-rule:nonzero;stroke:none" d="m 272.654,197.412 h -82.89 v 117.111 h 82.89 z m -41.44,-28.866 c -4.645,0 -8.423,3.78 -8.423,8.433 0,4.645 3.778,8.413 8.423,8.413 4.633,0 8.408,-3.768 8.408,-8.413 0,-4.653 -3.775,-8.433 -8.408,-8.433 m -18.83,160.243 h 37.662 c 0.95,0 1.717,-1.419 1.717,-3.174 0,-1.761 -0.767,-3.187 -1.717,-3.187 h -37.662 c -0.957,0 -1.716,1.426 -1.716,3.187 0,1.755 0.759,3.174 1.716,3.174 m 56.967,8.02 h -76.283 c -7.3,0 -13.194,-5.916 -13.194,-13.207 V 168.707 c 0,-7.284 5.894,-13.194 13.194,-13.194 h 76.283 c 7.284,0 13.187,5.91 13.187,13.194 v 154.895 c 0,7.291 -5.903,13.207 -13.187,13.207" transform="matrix(0.9999999999999999, 0, 0, 0.9999999999999999, 160.90003167752536, 227.48088728796984)"/><g transform="translate(721.5957,246.1611)" id="g66"/><g transform="translate(579.8877,240.4072)" id="g74"/></g></g></g></g></svg>